<svg width="190" height="26" viewBox="0 0 190 26" fill="none" xmlns="http://www.w3.org/2000/svg">
<path d="M15.8062 2.8148L13.3523 6.02656C11.9449 4.15002 10.2848 3.96959 9.41875 3.96959C6.89265 3.96959 6.09873 5.55743 6.09873 6.78439C6.09873 7.36178 6.27917 7.90309 6.85656 8.40831C7.43396 8.94962 8.22787 9.23832 9.74354 9.77962C11.6201 10.4292 13.3883 11.0788 14.6153 12.1975C15.6979 13.1718 16.6723 14.7957 16.6723 17.2497C16.6723 21.941 13.2801 25.1528 8.30005 25.1528C3.86133 25.1528 1.26305 22.4462 0 20.6058L3.06741 17.6827C4.2222 20.0284 6.42352 20.8945 8.11961 20.8945C10.2488 20.8945 11.8366 19.5953 11.8366 17.5745C11.8366 16.7084 11.5479 16.0227 10.8983 15.4092C9.99615 14.5792 8.55266 14.1101 7.18135 13.6409C5.9183 13.2079 4.40263 12.6305 3.17567 11.5479C2.38175 10.8622 1.26305 9.52701 1.26305 7.07308C1.26305 3.53654 3.6448 0 8.98571 0C10.5014 0 13.3523 0.288698 15.8062 2.8148Z" fill="#02661E"/>
<path d="M20.0709 0.541307H24.7623V24.6114H20.0709V0.541307Z" fill="#02661E"/>
<path d="M47.0001 18.2601V23.7454C45.5567 24.5032 43.644 25.1528 41.0458 25.1528C36.8236 25.1528 34.2614 23.7093 32.2405 21.7966C29.4618 19.1262 28.3792 16.131 28.3792 12.5944C28.3792 8.22787 30.1835 5.08829 32.2405 3.17567C34.6583 0.90218 37.6536 0 41.0819 0C42.778 0 44.7988 0.288698 47.0001 1.47957V6.96482C44.7988 4.43872 42.0562 4.25829 41.1901 4.25829C36.3544 4.25829 33.2149 8.22787 33.2149 12.6666C33.2149 18.0075 37.3288 20.8945 41.3706 20.8945C43.608 20.8945 45.5928 19.9201 47.0001 18.2601Z" fill="#02661E"/>
<path d="M63.9436 0.541307V4.58307H55.2827V9.96006H63.5828V14.0018H55.2827V20.5697H63.9436V24.6114H50.5914V0.541307H63.9436Z" fill="#02661E"/>
<path d="M95.2278 15.1945V12.6684H105.26V13.2458C105.26 15.9162 104.466 18.8032 102.95 20.8601C102.229 21.8345 99.5221 25.1906 94.0008 25.1906C86.8555 25.1906 81.5146 19.7414 81.5146 12.7405C81.5146 5.73963 86.8916 0.290462 94.073 0.290462C96.3826 0.290462 99.0891 0.867856 101.435 2.67221C102.517 3.50222 103.528 4.58484 104.213 5.5231L102.229 7.32746C101.543 6.35311 100.749 5.48701 99.9552 4.83744C98.8004 3.89918 96.996 2.81656 94.1091 2.81656C88.299 2.81656 84.2573 7.18311 84.2573 12.7766C84.2573 19.3445 89.4899 22.6645 94.0369 22.6645C97.2487 22.6645 100.027 21.0406 101.399 18.6227C101.832 17.8649 102.301 16.7101 102.373 15.1945H95.2278Z" fill="#02661E"/>
<path d="M109.439 0.687421H113.301C114.925 0.687421 117.342 0.795683 119.147 2.02265C120.554 2.96091 121.781 4.80136 121.781 7.36355C121.781 11.0444 119.363 13.751 115.719 14.0036L123.369 24.7576H120.121L112.795 14.2201H112.11V24.7576H109.439V0.687421ZM112.11 3.21352V11.8384H113.806C117.126 11.8384 119.111 10.2505 119.111 7.43572C119.111 6.1005 118.714 4.76527 117.198 3.89918C116.115 3.2857 114.889 3.21352 113.734 3.21352H112.11Z" fill="#02661E"/>
<path d="M138.055 25.1906C131.09 25.1906 125.533 19.8858 125.533 12.7405C125.533 5.55919 131.126 0.290462 138.055 0.290462C144.984 0.290462 150.577 5.55919 150.577 12.7405C150.577 19.8858 145.02 25.1906 138.055 25.1906ZM138.055 2.81656C132.642 2.81656 128.275 7.2192 128.275 12.7405C128.275 18.2619 132.642 22.6645 138.055 22.6645C143.468 22.6645 147.834 18.2619 147.834 12.7405C147.834 7.2192 143.468 2.81656 138.055 2.81656Z" fill="#02661E"/>
<path d="M157.432 0.687421V15.4471C157.432 17.468 157.432 19.6693 159.344 21.2932C160.319 22.1232 161.979 22.6645 163.314 22.6645C164.649 22.6645 166.309 22.1232 167.283 21.2932C169.196 19.6693 169.196 17.468 169.196 15.4471V0.687421H171.866V16.1688C171.866 18.1897 171.65 20.1384 170.351 21.9428C168.907 23.9276 166.381 25.1906 163.314 25.1906C160.246 25.1906 157.72 23.9276 156.277 21.9428C154.978 20.1384 154.761 18.1897 154.761 16.1688V0.687421H157.432Z" fill="#02661E"/>
<path d="M177.369 0.687421H181.736C184.154 0.687421 186.174 0.976119 187.798 2.38352C189.567 3.89918 190 6.02832 190 7.54398C190 10.9362 187.871 14.2923 182.385 14.2923H180.04V24.7576H177.369V0.687421ZM180.04 3.21352V11.7662H182.241C185.417 11.7662 187.329 10.1783 187.329 7.39963C187.329 3.5744 183.757 3.21352 182.024 3.21352H180.04Z" fill="#02661E"/>
</svg>
