<svg width="20" height="20" viewBox="0 0 20 20" fill="none" xmlns="http://www.w3.org/2000/svg">
<path d="M18.3332 6.41666C18.3332 5.91666 17.9998 5.41666 17.6665 5.16666L12.4165 1.91666C12.2006 1.79393 11.9565 1.7294 11.7082 1.7294C11.4598 1.7294 11.2157 1.79393 10.9998 1.91666L2.4165 6.91666C1.99984 7.08332 1.6665 7.58332 1.6665 8.08332V13.5833C1.6665 14 1.99984 14.5833 2.33317 14.8333L7.58317 18.0833C7.79907 18.2061 8.04316 18.2706 8.2915 18.2706C8.53985 18.2706 8.78394 18.2061 8.99984 18.0833L17.5832 13.0833C17.9998 12.8333 18.3332 12.25 18.3332 11.8333V6.41666Z" stroke="#6A7282" stroke-width="1.5" stroke-linecap="round" stroke-linejoin="round"/>
<path d="M8.33333 18.25V11.6667L1.75 7.58334" stroke="#6A7282" stroke-width="1.5" stroke-linecap="round" stroke-linejoin="round"/>
<path d="M8.3335 11.6667L18.2502 5.91667" stroke="#6A7282" stroke-width="1.5" stroke-linecap="round" stroke-linejoin="round"/>
<path d="M11.6665 16.5V9.75" stroke="#6A7282" stroke-width="1.5" stroke-linecap="round" stroke-linejoin="round"/>
<path d="M15 14.5833V7.83333" stroke="#6A7282" stroke-width="1.5" stroke-linecap="round" stroke-linejoin="round"/>
</svg>
