<svg width="17" height="15" viewBox="0 0 17 15" fill="none" xmlns="http://www.w3.org/2000/svg">
<path d="M0.75 13.5C0.920378 13.7374 1.14598 13.9297 1.40732 14.0604C1.66866 14.191 1.95788 14.2561 2.25 14.25C2.54212 14.2561 2.83134 14.191 3.09268 14.0604C3.35402 13.9297 3.57962 13.7374 3.75 13.5C3.92038 13.2626 4.14598 13.0703 4.40732 12.9396C4.66866 12.809 4.95788 12.7439 5.25 12.75C5.54212 12.7439 5.83134 12.809 6.09268 12.9396C6.35402 13.0703 6.57962 13.2626 6.75 13.5C6.92038 13.7374 7.14598 13.9297 7.40732 14.0604C7.66866 14.191 7.95788 14.2561 8.25 14.25C8.54212 14.2561 8.83134 14.191 9.09268 14.0604C9.35402 13.9297 9.57962 13.7374 9.75 13.5C9.92038 13.2626 10.146 13.0703 10.4073 12.9396C10.6687 12.809 10.9579 12.7439 11.25 12.75C11.5421 12.7439 11.8313 12.809 12.0927 12.9396C12.354 13.0703 12.5796 13.2626 12.75 13.5C12.9204 13.7374 13.146 13.9297 13.4073 14.0604C13.6687 14.191 13.9579 14.2561 14.25 14.25C14.5421 14.2561 14.8313 14.191 15.0927 14.0604C15.354 13.9297 15.5796 13.7374 15.75 13.5M2.25 12L1.5 8.25H15L13.5 11.25M3 8.25V3.75H9L12 8.25M4.5 3.75V0.75H3.75" stroke="white" stroke-width="1.5" stroke-linecap="round" stroke-linejoin="round"/>
</svg>
